<svg id="Layer_1" data-name="Layer 1" xmlns="http://www.w3.org/2000/svg" viewBox="0 0 2600 550"><defs><style>.cls-1{fill:#22bf5a;}.cls-2{fill:#8cdea6;}</style></defs><path class="cls-1" d="M876.09,187.75h63V402.92h-63V373.08c-16.81,24-42.45,38.24-73.13,38.24-60.51,0-103-47.91-103-116s42.45-116,103-116c30.68,0,56.32,14.29,73.13,38.25Zm-.42,107.58c0-34.88-23.54-60.51-56.32-60.51S763,260.45,763,295.33s23.53,60.52,56.31,60.52S875.67,330.21,875.67,295.33Z"/><path class="cls-1" d="M1139.17,402.92V373.5c-15.13,23.54-40.34,37.82-68.5,37.82-48.33,0-81.11-37.4-81.11-89.09V187.75h63V311.3c0,26.06,15.13,44.55,39.92,44.55s45-19.75,45-47.07v-121h63V402.92Z"/><path class="cls-1" d="M1315.68,187.75v27.31c12.61-21.43,34-35.3,57.58-35.3,8.4,0,17.23,2.1,25.64,5.47v55.89c-11.77-5-26.06-7.57-35.31-7.57-27.31,0-45.38,22.7-45.38,55.06V402.92h-63V187.75Z"/><path class="cls-1" d="M1435.46,123.45c0-20.6,15.12-35.3,36.56-35.3s36.56,14.7,36.56,35.3c0,21-15.13,35.72-36.56,35.72S1435.46,144.46,1435.46,123.45Zm68.08,64.3V402.92h-63V187.75Z"/><path class="cls-1" d="M1726.69,398.72V373.08c-16.81,20.59-41.18,32.78-71,32.78-59.26,0-102.12-45.39-102.12-110.53,0-67.66,42.86-115.57,102.12-115.57,30.26,0,54.63,12.61,71,33.62V187.75h63V400.4c0,66.82-47.07,107.58-115.15,107.58-58.84,0-106.33-36.14-112.63-85.73l56.31-6.3c5.47,24.37,28.16,42,53.8,42C1704,458,1726.69,436.12,1726.69,398.72Zm2.52-103.39c0-34.88-23.53-60.51-56.31-60.51s-56.32,25.63-56.32,60.51c0,34,23.54,58.84,56.32,58.84S1729.21,329.37,1729.21,295.33Z"/><path class="cls-1" d="M2010.79,187.75h63V402.92h-63V373.08c-16.81,24-42.45,38.24-73.13,38.24-60.52,0-103-47.91-103-116s42.44-116,103-116c30.68,0,56.32,14.29,73.13,38.25Zm-.42,107.58c0-34.88-23.54-60.51-56.32-60.51s-56.31,25.63-56.31,60.51,23.53,60.52,56.31,60.52S2010.37,330.21,2010.37,295.33Z"/><path class="cls-1" d="M2128.46,402.92V187.75H2189v25.63c13.45-21.85,37-34,63-34,31.1,0,57.15,14.71,69.34,38.25,13.87-23.54,42.45-38.25,72.29-38.25,48.75,0,82.79,36.56,82.79,88.26V402.92h-63V280.2c0-25.63-16-44.54-39.93-45.38-24.37,0-40.76,18.91-40.76,45.38V402.92h-63V280.2c0-27.31-15.13-45.38-38.66-45.38-24,0-39.51,18.07-39.51,45.38V402.92Z"/><path class="cls-1" d="M2526.88,123.45c0-20.6,15.12-35.3,36.56-35.3s36.56,14.7,36.56,35.3c0,21-15.13,35.72-36.56,35.72S2526.88,144.46,2526.88,123.45Zm68.08,64.3V402.92h-63V187.75Z"/><path class="cls-1" d="M13.53,323.82,526.21,1.43a9.1,9.1,0,0,1,13.6,10.21l-152,531.75a9.11,9.11,0,0,1-13.33,5.37L13.8,339.4A9.1,9.1,0,0,1,13.53,323.82Z"/><path class="cls-2" d="M3.24,325.33c5.4,2.36,10.29-1.51,10.29-1.51l176-110.68-72.88-140a9.1,9.1,0,0,0-16.53.82L1.54,320.55S.25,324,3.24,325.33Z"/><path class="cls-1" d="M189.54,213.14l-176,110.68s-4.89,3.87-10.29,1.51c-3-1.3-1.7-4.78-1.7-4.78l-.89,2.22A9.1,9.1,0,0,0,4.54,334L359.79,540.25Z"/></svg>