<svg width="177" height="32" viewBox="0 0 177 32" fill="none" xmlns="http://www.w3.org/2000/svg">
<path d="M16.0236 0C7.17439 0 0 7.16383 0 16C0 24.8369 7.17439 32 16.0236 32C24.8735 32 32.0472 24.8369 32.0472 16C32.0472 7.16383 24.8735 0 16.0236 0Z" fill="#F7F8EF"/>
<path d="M16.0239 3.20007C8.94473 3.20007 3.20508 8.93128 3.20508 16.0001C3.20508 23.0696 8.94473 28.8001 16.0239 28.8001C23.1039 28.8001 28.8428 23.0696 28.8428 16.0001C28.8428 8.93128 23.1039 3.20007 16.0239 3.20007Z" fill="#021123"/>
<path d="M13.7242 18.5498L13.6318 18.5037L18.7315 8.32001H18.8466L13.7242 18.5498Z" fill="#F7F8EF"/>
<path d="M15.1785 18.547L15.0869 18.5009L20.1845 8.32001H20.2996L15.1785 18.547Z" fill="#F7F8EF"/>
<path d="M14.2085 18.5491L14.1162 18.503L19.2152 8.32001H19.3303L14.2085 18.5491Z" fill="#F7F8EF"/>
<path d="M14.6939 18.5477L14.6016 18.5016L19.6998 8.32001H19.8149L14.6939 18.5477Z" fill="#F7F8EF"/>
<path d="M13.2398 18.5512L13.1475 18.5051L18.2472 8.32001H18.3629L13.2398 18.5512Z" fill="#F7F8EF"/>
<path d="M25.9957 8.32001H26.1115L20.9969 18.5335L20.9053 18.4874L25.9957 8.32001Z" fill="#F7F8EF"/>
<path d="M11.2994 18.5555L11.207 18.5094L16.3089 8.32001H16.4246L11.2994 18.5555Z" fill="#F7F8EF"/>
<path d="M12.2694 18.5533L12.1777 18.5072L17.2781 8.32001H17.3939L12.2694 18.5533Z" fill="#F7F8EF"/>
<path d="M11.7847 18.554L11.6924 18.5087L16.7935 8.32001H16.9093L11.7847 18.554Z" fill="#F7F8EF"/>
<path d="M12.7544 18.5519L12.6621 18.5065L17.7625 8.32001H17.8783L12.7544 18.5519Z" fill="#F7F8EF"/>
<path d="M18.0877 18.5399L17.9961 18.4938L23.0901 8.32001H23.2052L18.0877 18.5399Z" fill="#F7F8EF"/>
<path d="M18.5728 18.5392L18.4805 18.4931L23.5745 8.32001H23.6896L18.5728 18.5392Z" fill="#F7F8EF"/>
<path d="M19.0582 18.5377L18.9658 18.4916L24.0591 8.32001H24.1742L19.0582 18.5377Z" fill="#F7F8EF"/>
<path d="M15.6636 18.5455L15.5713 18.4994L20.6689 8.32001H20.7839L15.6636 18.5455Z" fill="#F7F8EF"/>
<path d="M20.5123 18.5349L20.4199 18.4888L25.5118 8.32001H25.6269L20.5123 18.5349Z" fill="#F7F8EF"/>
<path d="M20.0279 18.5356L19.9355 18.4895L25.0282 8.32001H25.1432L20.0279 18.5356Z" fill="#F7F8EF"/>
<path d="M19.5425 18.537L19.4502 18.4909L24.5435 8.32001H24.6586L19.5425 18.537Z" fill="#F7F8EF"/>
<path d="M16.6326 18.5434L16.541 18.4973L21.6365 8.32001H21.7522L16.6326 18.5434Z" fill="#F7F8EF"/>
<path d="M16.149 18.5448L16.0566 18.4987L21.1528 8.32001H21.2686L16.149 18.5448Z" fill="#F7F8EF"/>
<path d="M17.6031 18.5413L17.5107 18.4952L22.6055 8.32001H22.7205L17.6031 18.5413Z" fill="#F7F8EF"/>
<path d="M17.1177 18.542L17.0254 18.4966L22.1208 8.32001H22.2366L17.1177 18.542Z" fill="#F7F8EF"/>
<path d="M15.9971 28.747L5.76855 8.32001H15.9971L21.111 18.5335L15.9971 28.747Z" fill="#F7F8EF"/>
<path d="M106.416 11.2V8.18161H97.0098V23.7924H100.448V17.4962H105.556V14.4778H100.448V11.2H106.416Z" fill="#F8F9F0"/>
<path d="M108.889 11.6411C109.879 11.6411 110.714 10.8108 110.714 9.82198C110.714 8.80721 109.879 8 108.889 8C107.899 8 107.064 8.80721 107.064 9.82198C107.064 10.8108 107.899 11.6411 108.889 11.6411ZM107.223 23.7924H110.532V13.3852H107.223V23.7924Z" fill="#F8F9F0"/>
<path d="M118.949 13.1776C117.748 13.1776 116.706 13.7485 115.978 14.6594V13.3852H112.641V23.7924H115.978V17.7557C115.978 16.8187 116.758 16.1182 117.722 16.1182C118.686 16.1182 119.365 16.8187 119.365 17.7557V23.7924H122.673V17.2108C122.673 14.9189 121.005 13.1776 118.949 13.1776Z" fill="#F8F9F0"/>
<path d="M136.12 21.0854C135.675 21.0854 135.207 20.9297 135.207 20.0706V13.3852H131.899V14.2962C131.116 13.5928 130.126 13.1776 128.928 13.1776C126.035 13.1776 123.769 15.5704 123.769 18.5888C123.769 21.6072 126.035 24 128.928 24C130.438 24 131.662 23.3254 132.496 22.2328C133.149 23.2994 134.295 24 135.701 24C136.042 24 136.354 23.8962 136.587 23.7924V21.0854H136.12ZM129.577 21.0594C128.197 21.0594 127.103 19.9668 127.103 18.5888C127.103 17.2108 128.197 16.1182 129.577 16.1182C130.934 16.1182 132.055 17.2108 132.055 18.5888C132.055 19.9668 130.934 21.0594 129.577 21.0594Z" fill="#F8F9F0"/>
<path d="M143.781 13.1776C142.58 13.1776 141.538 13.7485 140.81 14.6594V13.3852H137.473V23.7924H140.81V17.7557C140.81 16.8187 141.59 16.1182 142.554 16.1182C143.518 16.1182 144.197 16.8187 144.197 17.7557V23.7924H147.505V17.2108C147.505 14.9189 145.837 13.1776 143.781 13.1776Z" fill="#F8F9F0"/>
<path d="M154.409 24C157.535 24 159.672 22.178 160.116 19.5776H156.678C156.337 20.4627 155.477 21.0335 154.409 21.0594C152.977 21.0335 151.934 19.9928 151.934 18.5888C151.934 17.1848 152.977 16.1441 154.409 16.1182C155.477 16.1441 156.337 16.7149 156.678 17.6H160.116C159.672 14.9996 157.535 13.1776 154.409 13.1776C150.918 13.1776 148.6 15.4667 148.6 18.5888C148.6 21.711 150.918 24 154.409 24Z" fill="#F8F9F0"/>
<path d="M171.816 18.5629C171.816 15.311 169.573 13.1517 166.212 13.1517C162.852 13.1517 160.481 15.3369 160.481 18.5888C160.481 21.8407 162.826 24 166.316 24C169.209 24 171.138 22.4663 171.658 20.2032H168.453C168.167 21.0335 167.411 21.5294 166.264 21.5294C164.754 21.5294 163.972 20.6184 163.842 19.1366H171.816V18.5629ZM166.264 15.7002C167.385 15.7002 168.037 16.222 168.375 17.133H164.05C164.391 16.2479 165.092 15.7002 166.264 15.7002Z" fill="#F8F9F0"/>
<path d="M52.0066 8.18161L48.2822 19.3441L44.5549 8.18161H40.7266L46.3536 23.7924H50.2108L55.8378 8.18161H52.0066Z" fill="#FACBBC"/>
<path d="M66.6005 18.5629C66.6005 15.311 64.3572 13.1517 60.9966 13.1517C57.636 13.1517 55.2656 15.3369 55.2656 18.5888C55.2656 21.8407 57.61 24 61.1005 24C63.9934 24 65.922 22.4663 66.4417 20.2032H63.237C62.9512 21.0335 62.1947 21.5294 61.0486 21.5294C59.5386 21.5294 58.7562 20.6184 58.6262 19.1366H66.6005V18.5629ZM61.0486 15.7002C62.1688 15.7002 62.8212 16.222 63.159 17.133H58.8341C59.1748 16.2479 59.8764 15.7002 61.0486 15.7002Z" fill="#FACBBC"/>
<path d="M71.2378 24C73.5821 24 75.0142 22.5701 75.0142 20.6184C75.0142 18.5369 73.2963 17.7038 71.8094 17.133C71.0559 16.8187 70.6892 16.663 70.6892 16.2739C70.6892 15.9337 70.9491 15.6742 71.5236 15.6742C72.2021 15.6742 72.8257 16.0403 73.1404 16.4295L74.8063 14.5557C74.0239 13.7744 72.7478 13.1776 71.2898 13.1776C68.9165 13.1776 67.4066 14.7373 67.4066 16.5074C67.4066 18.5888 69.4911 19.2922 70.6892 19.7333C71.6276 20.0966 71.9394 20.3589 71.9394 20.7221C71.9394 21.1373 71.5756 21.3737 71.027 21.3737C70.4814 21.3737 69.7509 21.1632 69.2832 20.2811L66.832 21.5034C67.4585 23.1149 69.3871 24 71.2378 24Z" fill="#FACBBC"/>
<path d="M82.2835 15.9596V13.3852H79.8093V9.37802H76.5006V13.3852H74.7539V15.9596H76.5006V20.0706C76.5006 22.2847 78.3773 24 80.5917 24C81.2961 24 81.9977 23.8443 82.2576 23.6627V21.0854H81.0074C80.3059 21.0854 79.8093 20.5405 79.8093 19.6814V15.9596H82.2835Z" fill="#FACBBC"/>
<path d="M94.9234 21.0854C94.4788 21.0854 94.0111 20.9297 94.0111 20.0706V13.3852H90.7024V14.2962C89.92 13.5928 88.9297 13.1776 87.7316 13.1776C84.8387 13.1776 82.5723 15.5704 82.5723 18.5888C82.5723 21.6072 84.8387 24 87.7316 24C89.2415 24 90.4657 23.3254 91.3001 22.2328C91.9526 23.2994 93.0987 24 94.5048 24C94.8455 24 95.1573 23.8962 95.3911 23.7924V21.0854H94.9234ZM88.3812 21.0594C87.0011 21.0594 85.9069 19.9668 85.9069 18.5888C85.9069 17.2108 87.0011 16.1182 88.3812 16.1182C89.7381 16.1182 90.8583 17.2108 90.8583 18.5888C90.8583 19.9668 89.7381 21.0594 88.3812 21.0594Z" fill="#FACBBC"/>
</svg>
